# AST/ASF file generated using VICON BodyLanguage
# -----------------------------------------------
:version 1.10
:name VICON
:units
  mass 1.0
  length 0.45
  angle deg
:documentation
   .ast/.asf automatically generated from VICON data using
   VICON BodyBuilder and BodyLanguage model FoxedUp or BRILLIANT.MOD
:root
   order TX TY TZ RX RY RZ
   axis XYZ
   position 0 0 0  
   orientation 0 0 0 
:bonedata
  begin
     id 1 
     name lhipjoint
     direction 0.566809 -0.746272 0.349008 
     length 2.40479 
     axis 0 0 0  XYZ
  end
  begin
     id 2 
     name lfemur
     direction 0.34202 -0.939693 0  
     length 7.1578  
     axis 0 0 20  XYZ
    dof rx ry rz
    limits (-160.0 20.0)
           (-70.0 70.0)
           (-60.0 70.0)
  end
  begin
     id 3 
     name ltibia
     direction 0.34202 -0.939693 0   
     length 7.49137   
     axis 0 0 20   XYZ
    dof rx
    limits (-10.0 170.0)
  end
  begin
     id 4 
     name lfoot
     direction 0.0665746 -0.182912 0.980873   
     length 2.36784   
     axis -90 7.62852e-016 20   XYZ
    dof rx rz
    limits (-45.0 90.0)
           (-70.0 20.0)
  end
  begin
     id 5 
     name ltoes
     direction 1.53601e-011 -4.22058e-011 1   
     length 1.18966   
     axis -90 7.62852e-016 20   XYZ
    dof rx
    limits (-90.0 20.0)
  end
  begin
     id 6 
     name rhipjoint
     direction -0.550236 -0.756381 0.353735   
     length 2.37265  
     axis 0 0 0  XYZ 
  end
  begin
     id 7 
     name rfemur
     direction -0.34202 -0.939693 0   
     length 7.43386   
     axis 0 0 -20   XYZ
    dof rx ry rz
    limits (-160.0 20.0)
           (-70.0 70.0)
           (-70.0 60.0)
  end
  begin
     id 8 
     name rtibia
     direction -0.34202 -0.939693 0   
     length 7.50908   
     axis 0 0 -20   XYZ
    dof rx
    limits (-10.0 170.0)
 end
 begin
     id 9 
     name rfoot
     direction -0.0683029 -0.187661 0.979856   
     length 2.41173  
     axis -90 -7.62852e-016 -20   XYZ
    dof rx rz
    limits (-45.0 90.0)
           (-20.0 70.0)
  end
  begin
     id 10 
     name rtoes
     direction -1.53528e-011 -4.21968e-011 1   
     length 1.21082   
     axis -90 -7.62852e-016 -20   XYZ
    dof rx
    limits (-90.0 20.0)
  end
  begin
     id 11 
     name lowerback
     direction 0.013823 0.995423 -0.0945635   
     length 2.04495   
     axis 0 0 0   XYZ
    dof rx ry rz
    limits (-20.0 45.0)
           (-30.0 30.0)
           (-30.0 30.0)
  end
  begin
     id 12 
     name upperback
     direction 0.0276657 0.9994 -0.020853   
     length 2.05008   
     axis 0 0 0   XYZ
    dof rx ry rz
    limits (-20.0 45.0)
           (-30.0 30.0)
           (-30.0 30.0)
  end
  begin
     id 13 
     name thorax
     direction 0.019782 0.999531 0.0233827   
     length 2.06488   
     axis 0 0 0   XYZ
    dof rx ry rz
    limits (-20.0 45.0)
           (-30.0 30.0)
           (-30.0 30.0)
  end
  begin
     id 14 
     name lowerneck
     direction -0.0308541 0.994709 0.0979874   
     length 1.75553   
     axis 0 0 0   XYZ
    dof rx ry rz
    limits (-20.0 45.0)
           (-30.0 30.0)
           (-30.0 30.0)
  end
  begin
     id 15 
     name upperneck
     direction 0.0588398 0.995804 -0.0700903   
     length 1.76878   
     axis 0 0 0   XYZ
    dof rx ry rz
    limits (-20.0 45.0)
           (-30.0 30.0)
           (-30.0 30.0)
  end
  begin
     id 16
     name head
     direction 0.0209966 0.999159 -0.0352225  
     length 1.77193  
     axis 0 0 0   XYZ
    dof rx ry rz
    limits (-20.0 45.0)
           (-30.0 30.0)
           (-30.0 30.0)
  end
  begin
     id 17 
     name lclavicle
     direction 0.938182 0.335073 -0.0868338  
     length 3.58396  
     axis 0 0 0   XYZ
    dof ry rz
    limits (-20.0 10.0)
           (0.0 20.0)
  end
  begin
     id 18 
     name lhumerus
     direction 1 -4.48971e-011 -1.26313e-017   
     length 4.983   
     axis 180 -30 -90   XYZ
    dof rx ry rz
    limits (-60.0 90.0)
           (-90.0 90.0)
           (-90.0 90.0)
  end
  begin
     id 19
     name lradius
     direction 1 -4.48948e-011 -5.89033e-027   
     length 3.48356   
     axis 180 -30 -90   XYZ
    dof rx
    limits (-10.0 170.0)
  end
  begin
     id 20
     name lwrist
     direction 1 -4.48977e-011 -1.48983e-026   
     length 1.74178   
     axis 9.0955e-015 90 90   XYZ
    dof ry
    limits (-180.0 0.0)
 end
  begin
     id 21 
     name lhand
     direction 1 -4.49046e-011 -2.98066e-026   
     length 0.715259   
     axis 1.90115e-014 90 90   XYZ
    dof rx rz
    limits (-90.0 90.0)
           (-45.0 45.0)
  end
  begin
     id 22 
     name lfingers
     direction 1 -4.48907e-011 -5.95731e-026   
     length 0.576661   
     axis 3.80223e-014 90 90   XYZ
    dof rx
    limits (0.0 90.0)
  end
  begin
     id 23
     name lthumb
     direction 0.707107 -6.34963e-011 0.707107   
     length 0.827973   
     axis -90 45 -3.84942e-014   XYZ
    dof rx rz
    limits (-45.0 45.0)
           (-45.0 45.0)
  end
  begin
     id 24 
     name rclavicle
     direction -0.909637 0.398485 -0.11735   
     length 3.44819  
     axis 0 0 0   XYZ 
    dof ry rz
    limits (-10.0 20.0)
           (-20.0 0.0)
  end
  begin
     id 25 
     name rhumerus
     direction -1 -4.48978e-011 -1.09333e-027  
     length 5.2419   
     axis 180 30 90   XYZ
    dof rx ry rz
    limits (-90.0 60.0)
           (-90.0 90.0)
           (-90.0 90.0)
  end
  begin
     id 26 
     name rradius
     direction -1 -4.48953e-011 -7.61841e-027   
     length 3.44417   
     axis 180 30 90   XYZ
    dof rx
    limits (-10.0 170.0)
  end
  begin
     id 27 
     name rwrist
     direction -1 -4.48977e-011 -1.48983e-026   
     length 1.72209   
     axis 9.0955e-015 -90 -90   XYZ
    dof ry
    limits (-180.0 0.0)
  end
  begin
     id 28
     name rhand
     direction -1 -4.49027e-011 -2.98038e-026   
     length 0.622529   
     axis 1.90115e-014 -90 -90   XYZ
    dof rx rz
    limits (-90.0 90.0)
           (-45.0 45.0)
  end
  begin
     id 29
     name rfingers
     direction -1 -4.48838e-011 -5.95531e-026   
     length 0.501899   
     axis 3.80223e-014 -90 -90   XYZ
    dof rx
    limits (0.0 90.0)
  end
  begin
     id 30
     name rthumb
     direction -0.707107 -6.34937e-011 0.707107   
     length 0.720629   
     axis -90 -45 3.84942e-014   XYZ
    dof rx rz
    limits (-45.0 45.0)
           (-45.0 45.0)
  end
:hierarchy
  begin
    root lhipjoint rhipjoint lowerback
    lhipjoint lfemur
    lfemur ltibia
    ltibia lfoot
    lfoot ltoes
    rhipjoint rfemur
    rfemur rtibia
    rtibia rfoot
    rfoot rtoes
    lowerback upperback
    upperback thorax
    thorax lowerneck lclavicle rclavicle
    lowerneck upperneck
    upperneck head
    lclavicle lhumerus
    lhumerus lradius
    lradius lwrist
    lwrist lhand lthumb
    lhand lfingers
    rclavicle rhumerus
    rhumerus rradius
    rradius rwrist
    rwrist rhand rthumb
    rhand rfingers
  end

#!OML:ASF H:\Terrain\Patient Classification 1\PLAYGROUND\JustinFriday\JustinFriday.ASF
:FULLY-SPECIFIED
:DEGREES
1
root 11.6562 17.3847 13.933 70.2373 -88.5734 -66.0737
lowerback 9.03896 0.18036 -3.40634
upperback 3.38239 -0.116974 1.72859
thorax -1.54683 -0.128181 3.72288
lowerneck -3.29785 -6.30576 -6.79116
upperneck 11.6938 -8.702 4.91597
head 4.55485 -4.36588 2.14808
rclavicle 1.63997e-015 -3.08116e-015
rhumerus -31.2129 -8.39917 -81.2028
rradius 27.5902
rwrist -9.54867
rhand -14.216 -23.7809
rfingers 7.12502
rthumb 11.9208 -53.4215
lclavicle 1.63997e-015 -3.08116e-015
lhumerus -24.9586 7.52879 82.9351
lradius 41.5746
lwrist 5.32704
lhand -20.4594 -4.0701
lfingers 7.12502
lthumb 5.89634 25.8279
rfemur -36.6646 -0.738274 21.747
rtibia 27.4315
rfoot -4.25994 -11.9821
rtoes 5.58072
lfemur 5.0846 5.16757 -21.019
ltibia 20.765
lfoot -24.9657 -2.73594
ltoes 6.31424
2
root 11.5663 17.3813 13.929 60.3659 -88.6484 -55.9821
lowerback 8.97409 -0.00422576 -3.5881
upperback 3.35343 -0.375697 1.59912
thorax -1.51721 -0.256477 3.71654
lowerneck -3.22765 -6.25915 -7.1607
upperneck 12.0386 -8.69335 5.33535
head 4.68212 -4.36075 2.33283
rclavicle 7.92654e-015 2.23633e-015
rhumerus -31.4202 -7.66105 -81.5577
rradius 27.9688
rwrist -9.97437
rhand -13.8017 -24.0793
rfingers 7.12502
rthumb 12.3203 -53.6964
lclavicle 7.92654e-015 2.23633e-015
lhumerus -24.9184 7.55317 82.8324
lradius 41.6264
lwrist 5.42118
lhand -20.7488 -4.86967
lfingers 7.12502
lthumb 5.61689 25.0359
rfemur -36.9998 -0.843011 21.65
rtibia 26.6365
rfoot -4.75285 -12.0257
rtoes 3.13392
lfemur 5.53853 5.11453 -21.1493
ltibia 20.0322
lfoot -24.7617 -3.01664
ltoes 6.95785
3
root 11.4769 17.3799 13.9117 24.2449 -89.0398 -19.4605
lowerback 8.77391 -0.0393296 -4.53502
upperback 3.29522 -0.493625 1.3799
thorax -1.44729 -0.317168 4.03416
lowerneck -2.95521 -6.35855 -7.36718
upperneck 11.9853 -8.85579 5.53288
head 4.64855 -4.44474 2.42502
rclavicle 2.2736e-015 -1.9133e-015
rhumerus -31.766 -7.85164 -81.4703
rradius 28.4319
rwrist -9.62985
rhand -13.6803 -24.3612
rfingers 7.12502
rthumb 12.4373 -53.9711
lclavicle 2.2736e-015 -1.9133e-015
lhumerus -24.7627 7.03729 82.8965
lradius 41.8552
lwrist 5.17773
lhand -20.5605 -4.71502
lfingers 7.12502
lthumb 5.79865 25.1856
rfemur -37.6182 -0.24566 20.5224
rtibia 26.117
rfoot -5.819 -12.5179
rtoes 4.49524
lfemur 5.83378 5.16962 -21.9036
ltibia 19.1434
lfoot -24.3413 -3.79786
ltoes 9.38915
4
root 11.4004 17.3783 13.9462 20.1987 -89.2401 -14.8625
lowerback 8.66611 0.0258414 -4.1234
upperback 3.171 -0.369826 1.13421
thorax -1.53572 -0.245239 3.53255
lowerneck -2.79682 -6.54315 -7.12161
upperneck 11.9108 -9.1143 5.40938
head 4.5997 -4.56973 2.33825
rclavicle -4.72735e-015 -2.78174e-014
rhumerus -32.0335 -8.184 -81.4733
rradius 28.7694
rwrist -9.76122
rhand -14.2423 -24.2783
rfingers 7.12502
rthumb 11.8955 -53.9204
lclavicle -4.72735e-015 -2.78174e-014
lhumerus -24.4457 6.48954 82.9467
lradius 42.1364
lwrist 4.26732
lhand -19.9589 -3.65872
lfingers 7.12502
lthumb 6.37946 26.2252
rfemur -38.3914 -1.16805 20.8597
rtibia 25.4922
rfoot -6.25889 -11.3515
rtoes 4.89464
lfemur 5.96994 5.01183 -22.2845
ltibia 18.4582
lfoot -24.2441 -3.54843
ltoes 9.89593
5
root 11.3206 17.3653 13.9357 -28.9409 -88.9901 34.3662
lowerback 8.97358 0.0113469 -4.9466
upperback 3.22535 -0.483223 0.806575
thorax -1.63228 -0.304112 3.67102
lowerneck -3.0756 -6.6783 -6.84807
upperneck 12.2531 -9.31733 5.38782
head 4.75043 -4.65409 2.26062
rclavicle -2.42269e-015 -1.1281e-014
rhumerus -32.0069 -7.74442 -81.9118
rradius 28.9033
rwrist -10.3938
rhand -14.877 -24.2088
rfingers 7.12502
rthumb 11.2834 -53.8853
lclavicle -2.42269e-015 -1.1281e-014
lhumerus -24.0148 6.25566 82.8632
lradius 42.0619
lwrist 4.1482
lhand -19.996 -3.87518
lfingers 7.12502
lthumb 6.34368 26.0098
rfemur -38.628 -1.09309 20.1034
rtibia 24.9521
rfoot -6.60658 -11.7323
rtoes 3.33076
lfemur 6.45435 4.81968 -23.0624
ltibia 17.8576
lfoot -23.981 -3.10454
ltoes 7.55595
6
root 11.2251 17.3614 13.9178 -3.06929 -89.1189 8.74075
lowerback 8.89545 -0.167755 -4.73766
upperback 3.32418 -0.697548 0.908098
thorax -1.46702 -0.418035 3.67805
lowerneck -3.49494 -6.66632 -7.15123
upperneck 12.4474 -9.26996 5.48156
head 4.89643 -4.62973 2.32214
rclavicle 6.41081e-015 8.84592e-015
rhumerus -31.9029 -7.12528 -82.2271
rradius 29.0907
rwrist -10.2017
rhand -14.4032 -23.8785
rfingers 7.12502
rthumb 11.7403 -53.5295
lclavicle 6.41081e-015 8.84592e-015
lhumerus -23.637 6.39532 82.7328
lradius 42.1312
lwrist 4.16623
lhand -19.7653 -3.47703
lfingers 7.12502
lthumb 6.56636 26.4012
rfemur -38.8476 -0.490377 20.4623
rtibia 24.4167
rfoot -7.68157 -12.1765
rtoes 4.84846
lfemur 6.73932 4.85741 -22.4616
ltibia 17.4126
lfoot -23.6858 -2.96326
ltoes 6.59673
7
root 11.1267 17.363 13.9011 16.4073 -89.0631 -10.5422
lowerback 8.93131 -0.282292 -4.6927
upperback 3.34936 -0.844874 1.05907
thorax -1.44433 -0.493665 3.82464
lowerneck -3.63059 -6.60806 -7.50768
upperneck 12.4463 -9.15907 5.55287
head 4.93183 -4.5836 2.40288
rclavicle -1.88845e-015 -3.37934e-015
rhumerus -32.0854 -6.53399 -82.2764
rradius 29.5215
rwrist -10.2761
rhand -14.085 -23.819
rfingers 7.12502
rthumb 12.0471 -53.4522
lclavicle -1.88845e-015 -3.37934e-015
lhumerus -23.4956 6.17293 82.8209
lradius 42.3049
lwrist 4.72193
lhand -20.0201 -3.41533
lfingers 7.12502
lthumb 6.32041 26.4704
rfemur -39.0105 -0.0265903 20.6607
rtibia 23.9977
rfoot -8.88037 -12.3692
rtoes 7.3771
lfemur 7.04104 5.14774 -21.9415
ltibia 17.0617
lfoot -23.4185 -3.35816
ltoes 7.31613
